<?xml version="1.0" encoding="UTF-8"?>
<svg width="45px" height="45px" viewBox="0 0 45 45" version="1.1" xmlns="http://www.w3.org/2000/svg" xmlns:xlink="http://www.w3.org/1999/xlink">
    <!-- Generator: Sketch 42 (36781) - http://www.bohemiancoding.com/sketch -->
    <title>house loggo</title>
    <desc>Created with Sketch.</desc>
    <defs></defs>
    <g id="Design" stroke="none" stroke-width="1" fill="none" fill-rule="evenodd">
        <g id="Desktop-2" transform="translate(-30.000000, -44.000000)">
            <g id="house-loggo" transform="translate(30.000000, 44.000000)">
                <circle id="Oval-3-Copy" fill="#6779B0" fill-rule="evenodd" cx="22.5" cy="22.5" r="22.5"></circle>
                <path d="M26.6090205,12.6730531 L21.9248733,8.78150199 L7.83821559,20.4845829 L7,19.4201638 L21.9248733,7 L28.0637505,12.1086437 C27.5766295,12.2617978 27.0892887,12.4483863 26.6090205,12.6730531 L26.6090205,12.6730531 Z M34.7397647,19.4280095 L36.011531,20.4845829 L36.8497466,19.4201638 L36.0406568,18.7468563 L34.7397647,19.4280095 L34.7397647,19.4280095 Z M33.4411079,20.1079904 L33.9146259,20.5019068 L33.9146259,36.6399994 L9.93512074,36.6399994 L9.93512074,20.5019068 L21.9248733,10.527729 L25.3423605,13.3707085 C23.0796157,14.8236072 21.1432973,17.2904941 20.391332,21.317592 L20.0874104,22.9452291 L17.9282891,22.9452291 L17.9282891,35.2705224 L25.9214575,35.2705224 L25.9214575,22.9452291 L22.4402555,22.9452291 L22.8311587,22.2985771 C25.1970353,18.3848213 27.6335129,17.1557349 30.1488378,17.3691788 L30.7243046,17.8479042 L30.5057008,19.2267443 L30.1495998,21.8314389 L32.4295685,20.6376371 L33.4411079,20.1079904 L33.4411079,20.1079904 Z M8.60292601,9.25045886 L12.5995102,9.25045886 L12.5995102,12.9984066 L8.60292601,16.3242788 L8.60292601,9.25045886 Z M21.6996432,21.5757521 C25.8352685,14.7343844 30.7600474,15.9436724 32.2367679,16.4049574 L31.8249306,19.4173385 L39.0699997,15.6237872 L33.1227707,9.92429223 L32.705502,12.9764019 C30.5847426,12.8018825 23.3053668,12.9764019 21.6996432,21.5757521 Z" id="house-home-export-real_estate-property-glyph" fill-opacity="0.953634511" fill="#FFFFFF" fill-rule="nonzero"></path>
            </g>
        </g>
    </g>
</svg>